<?xml version="1.0" encoding="UTF-8"?>
<!DOCTYPE svg PUBLIC "-//W3C//DTD SVG 1.1//EN" "http://www.w3.org/Graphics/SVG/1.1/DTD/svg11.dtd">
<!-- Creator: CorelDRAW X6 -->
<svg xmlns="http://www.w3.org/2000/svg" xml:space="preserve" width="352778px" height="324556px" version="1.1" style="shape-rendering:geometricPrecision; text-rendering:geometricPrecision; image-rendering:optimizeQuality; fill-rule:evenodd; clip-rule:evenodd"
viewBox="0 0 78038 72287"
 xmlns:xlink="http://www.w3.org/1999/xlink">
 <defs>
  <style type="text/css">
   <![CDATA[
    .fil0 {fill:black}
   ]]>
  </style>
 </defs>
 <g id="Слой_x0020_1">
  <metadata id="CorelCorpID_0Corel-Layer"/>
  <path class="fil0" d="M16961 22296c564,0 1009,-80 1672,-80l49212 -80c1929,0 3606,89 5495,79 278,-2 1077,30 1261,100 276,105 181,142 101,453 -51,200 -84,364 -137,594 -813,3581 -1925,7781 -2819,11355l-3391 13490c-381,1515 -796,2995 -1148,4506 -14314,0 -28377,80 -42682,80 -8,-339 -124,-570 -208,-907l-716 -2867c-561,-2245 -6626,-26163 -6641,-26724zm27439 -22296l461 0c447,109 786,534 1225,975 733,737 2041,2388 2782,3270 135,161 133,192 284,353l1393 1633c184,206 371,429 544,650l1957 2263c112,140 108,162 246,312 207,223 454,339 539,656l239 0c78,-291 328,-556 474,-800 1009,-1689 2314,-4079 3316,-5602 521,-792 1371,-2816 2525,-2305 2091,925 9320,5183 11317,6365 857,507 4346,2276 4346,3219 0,818 -3232,5986 -3876,7193 -184,344 -415,626 -504,1009 629,0 1113,80 1832,80 1176,0 2523,-76 3653,89 442,64 886,469 886,946 0,1230 -1686,7283 -2051,9018 -169,803 -348,1454 -546,2241l-3264 13299c-189,755 -332,1421 -543,2164 -616,2170 -1057,4411 -1690,6592 -200,689 -202,1520 -979,1729 -687,185 -1869,229 -2550,237 -925,11 -1863,-3 -2790,-3 -1828,0 -3520,80 -5415,80 -10989,0 -21978,0 -32967,0 145,622 458,2088 717,2628 2441,0 4217,714 5793,2409 261,281 466,602 662,931 417,702 754,1391 951,2234 7432,0 14864,0 22296,0 1114,0 1967,-80 3026,-80 374,-1605 1159,-2621 2249,-3723 1827,-1849 5326,-2158 7705,-1055 559,259 1515,973 1933,1411 2426,2548 2557,6052 632,8958 -167,252 -208,269 -390,485 -394,468 -813,877 -1329,1219 -333,220 -686,452 -1061,612 -2436,1042 -5524,682 -7370,-1039l-797 -796c-246,-274 -434,-562 -633,-880 -215,-346 -377,-683 -539,-1053 -106,-243 -377,-842 -400,-1113 -4247,0 -8494,0 -12741,0 -4284,0 -8311,-80 -12582,-80 -46,549 -633,1815 -891,2215 -2827,4390 -9463,4570 -12010,-144 -1064,-1970 -796,-2569 -796,-4778 0,-2005 1946,-3894 3504,-4937 -252,-525 -1528,-6033 -1704,-6737l-10081 -40404c-555,-2221 -1153,-4463 -1672,-6689l-9078 0c-139,-521 -637,-399 -637,-1194 0,-1060 489,-960 637,-1513 2681,0 5362,0 8043,0 667,0 1415,-32 2071,-1 781,37 1020,130 1274,717 686,1584 2114,7905 2515,9509 279,1114 547,2188 812,3249 181,725 543,2626 813,3151l3025 98c481,18 667,-80 1194,-80 279,-527 463,-1218 683,-1785 127,-328 179,-560 306,-888l1549 -4423c203,-614 2044,-6679 2956,-6679 1223,0 3296,901 4449,1284l3941 1394c8,-15 34,18 50,29 609,-408 1933,-1561 2528,-2091l4106 -3459c142,-120 168,-119 312,-245l1873 -1551c523,-467 926,-702 1261,-776zm-6417 19271l-10511 0c-1397,0 -2510,-80 -3902,-80l3583 -10432c371,31 8759,2863 9863,3276 504,189 1040,372 1594,556 317,106 1408,524 1683,547l-1623 4668c-96,289 -159,496 -265,770 -104,269 -153,693 -422,693zm26358 0l-12582 -80c181,-270 3247,-2741 3684,-3164 1397,-1349 1880,-1359 536,-3366l2284 -3927c403,-674 755,-1285 1155,-1950 198,-328 1046,-1770 1259,-1926 304,71 1179,625 1512,797 498,257 975,531 1480,830 1010,597 1995,1144 2984,1714 987,568 1928,1110 2917,1702 464,278 2692,1533 2892,1806 -83,359 -2582,4606 -2812,4992 -171,287 -1198,2225 -1509,2393 -267,144 -3191,181 -3801,181z"/>
 </g>
</svg>
