<?xml version="1.0" encoding="UTF-8"?>
<!DOCTYPE svg PUBLIC "-//W3C//DTD SVG 1.1//EN" "http://www.w3.org/Graphics/SVG/1.1/DTD/svg11.dtd">
<!-- Creator: CorelDRAW X6 -->
<svg xmlns="http://www.w3.org/2000/svg" xml:space="preserve" width="176389px" height="176389px" version="1.1" style="shape-rendering:geometricPrecision; text-rendering:geometricPrecision; image-rendering:optimizeQuality; fill-rule:evenodd; clip-rule:evenodd"
viewBox="0 0 18835 18835"
 xmlns:xlink="http://www.w3.org/1999/xlink">
 <defs>
  <style type="text/css">
   <![CDATA[
    .fil0 {fill:black}
   ]]>
  </style>
 </defs>
 <g id="Слой_x0020_1">
  <metadata id="CorelCorpID_0Corel-Layer"/>
  <path class="fil0" d="M7106 279c-52,25 -284,94 -370,89 -49,43 -136,60 -207,74 -49,32 -120,46 -178,48 -48,55 -423,179 -512,201 -27,24 -327,150 -388,177 -94,42 -306,166 -383,170 -45,52 -895,530 -896,530 -26,41 -94,89 -147,98 -51,65 -198,166 -271,196l-518 432c-189,150 -331,302 -495,468 -77,78 -168,156 -241,240 -70,80 -157,170 -225,256l-430 518 -179 243c-7,45 4,9 -19,55 -1,1 -19,32 -24,38 -29,40 -27,40 -51,51 -39,107 -203,344 -274,460 -45,74 -87,146 -130,225 -42,78 -68,159 -131,210 -4,30 -322,745 -350,779 -37,143 -107,296 -159,445 -45,130 -92,314 -140,418l-112 402c-38,281 -126,593 -170,897 -25,169 -67,828 -106,920l0 994c38,88 82,754 106,920 40,276 96,625 177,876l106 420c49,116 99,301 145,437 48,142 117,290 153,429 24,28 346,750 350,778 61,50 99,150 139,224 48,88 82,144 131,225 72,120 223,334 267,447 40,18 82,94 94,143l112 130c45,61 58,66 82,139 52,25 84,84 124,137 48,63 79,81 96,148 73,37 85,68 113,134 56,22 295,321 373,392 132,122 217,225 373,380 70,70 142,118 211,186l605 512c62,23 37,12 91,49l179 147c53,9 122,58 148,97l845 486c70,48 19,8 50,45 24,2 740,320 771,347 148,36 296,107 449,161 124,43 366,89 448,163 78,-4 322,66 370,89 639,102 836,193 1554,249 37,3 74,4 110,8l114 24 1029 0c94,-41 742,-79 920,-107 311,-50 604,-128 895,-173 52,-27 297,-101 380,-91 62,-53 331,-124 437,-161 156,-55 296,-120 450,-164 20,-27 334,-152 398,-181 115,-53 306,-167 416,-201 7,-7 -9,3 31,-24l188 -103c72,-40 144,-83 212,-123 144,-84 294,-200 430,-259 25,-39 73,-68 121,-78 48,-67 226,-187 297,-218 11,-38 3,-17 48,-53 416,-338 510,-396 937,-822 160,-160 294,-306 457,-484 68,-74 375,-480 422,-502 40,-82 145,-238 217,-292 9,-49 -2,-26 35,-82 2,-3 26,-32 26,-32 19,-20 22,-20 27,-24 53,-134 189,-309 273,-453l264 -436 361 -799 327 -861c-8,-70 62,-321 96,-377 34,-217 99,-440 143,-671 21,-112 85,-613 112,-675l0 -64 -419 -1 -422 0 -415 0 -423 0 -258 7 -21 145c-17,116 -122,745 -203,858 8,71 -59,323 -104,372 -17,107 -262,788 -358,880 -2,109 -370,755 -433,798 -32,95 -82,148 -138,232 -41,63 -98,162 -162,204 -18,87 -275,373 -343,462 -55,71 -128,144 -186,212 -59,69 -132,149 -212,194l-55 55c-73,126 -299,306 -419,405 -117,97 -325,292 -464,344l-16 6c-45,78 -317,245 -413,282 -38,65 -673,405 -777,412l-106 69c-190,85 -598,244 -775,288l-409 120c-266,68 -572,133 -858,163l-396 46 -422 22 -420 0c-87,-2 -494,-4 -572,-54 -148,36 -548,-56 -688,-87 -90,-15 -169,-33 -252,-52l-166 -45c-34,-15 -25,-10 -45,-27 -66,7 -319,-55 -353,-91 -147,-27 -337,-106 -475,-158l-311 -130c-62,-29 -55,-23 -90,-63 -140,-4 -700,-342 -820,-423 -83,-41 -149,-89 -224,-138l-149 -102c-33,-33 -19,-12 -33,-50 -62,-9 -41,3 -139,-71 -135,-101 -670,-515 -734,-640 -40,-12 2,23 -58,-33 -43,-40 -25,-24 -35,-55 -80,-38 -93,-67 -163,-145 -51,-56 -86,-101 -137,-156 -188,-205 -677,-783 -751,-997 -45,-30 -70,-73 -79,-130 -70,-52 -151,-215 -179,-295 -43,-26 -173,-281 -178,-354 -18,-17 -15,-12 -33,-37 -12,-16 -13,-18 -24,-40 -22,-45 -24,-58 -37,-106 -39,-47 -93,-162 -94,-239l-188 -451c-35,-108 -117,-295 -107,-402l-202 -874c-21,-100 -52,-242 -29,-339 -3,-5 -6,-12 -7,-16l-12 -35c-26,-100 -41,-547 -42,-646l38 -701c-23,-73 -3,-221 12,-291l70 -472c12,-34 11,-30 24,-48 -28,-143 122,-622 169,-779 41,-132 119,-441 191,-507 5,-97 261,-689 324,-738 40,-127 175,-361 242,-443l24 -35c40,-95 222,-378 290,-418 10,-64 7,-45 56,-105 31,-38 55,-68 73,-84 40,-69 118,-180 181,-220 17,-59 185,-253 241,-276 33,-77 60,-109 150,-157l230 -248c38,-27 -1,-7 36,-16 30,-59 6,-32 61,-80 39,-33 44,-32 85,-51 37,-69 57,-72 119,-121 67,-53 67,-80 144,-99 42,-68 58,-70 120,-118 52,-40 70,-61 136,-87 2,-3 5,-8 7,-9l156 -101c60,-97 309,-228 423,-296 125,-75 314,-197 449,-247 112,-69 675,-340 793,-341 74,-65 404,-160 487,-177 74,-52 634,-185 738,-177 80,-63 387,-88 510,-97 39,-13 125,-24 192,-10 71,-43 299,-45 387,-51l831 1c86,6 314,9 383,50 83,-19 219,9 287,24 176,22 796,119 891,211 115,-4 281,62 370,102 125,31 401,110 470,190 66,1 159,36 199,76 50,12 59,12 107,34 22,10 25,13 41,24 25,17 21,15 38,32 71,4 346,131 374,179l209 88c85,-73 139,-164 240,-213 11,-34 -13,-9 35,-58 50,-51 24,-24 57,-35 37,-76 81,-104 151,-174 77,-76 94,-113 174,-152 11,-32 -11,-11 35,-57 46,-46 27,-25 57,-35 30,-62 28,-52 78,-102 74,-72 159,-181 248,-224 11,-35 -16,-6 35,-58 50,-50 24,-24 58,-35 54,-109 162,-164 228,-261 -74,-77 -194,-93 -262,-179 -51,-4 -31,11 -61,-23 -93,-30 -163,-81 -249,-123 -73,-36 -167,-65 -217,-124 -66,-6 -225,-67 -253,-109 -74,-21 -113,-29 -162,-81 -76,-1 -302,-90 -361,-136 -140,-32 -308,-105 -454,-153 -113,-37 -365,-87 -438,-151l-396 -82c-262,-76 -593,-126 -866,-164 -165,-23 -814,-61 -906,-99l-1052 0 -249 34c-77,6 -154,14 -230,22 -149,15 -299,35 -451,58 -280,44 -577,126 -848,166z"/>
  <path class="fil0" d="M14643 5429l-7 5c-29,59 -5,22 -49,70l-155 138c-119,106 -118,141 -209,181 -6,34 13,21 -30,27 -34,66 -38,58 -94,107 -37,32 -63,55 -98,90 -79,78 -101,128 -197,171 -10,24 8,6 -18,32 -26,26 -8,7 -36,17 -37,65 -41,54 -93,106 -31,31 -52,58 -80,86 -61,61 -115,117 -193,154 -10,22 5,10 -30,43 -37,35 -21,18 -48,28 -36,65 -105,127 -163,180 -61,56 -105,107 -180,143 -11,21 -20,41 -48,69 -46,46 -12,24 -56,35 -39,78 -250,258 -316,292 -16,47 -17,47 -56,82 -12,11 -22,17 -35,25 -39,23 0,6 -37,16l-277 269c-25,51 -113,130 -167,147 -31,56 -11,30 -60,76 -26,24 -42,34 -67,58 -69,69 -40,73 -132,112 -20,57 -137,151 -185,169 -32,56 -16,29 -59,76 -21,24 -33,38 -49,55 -46,48 -67,68 -128,94l-180 184c-49,43 -17,24 -53,36 -24,47 0,17 -39,61 -14,16 -26,22 -44,39 -54,49 -37,44 -104,74 -11,24 2,4 -21,33 -11,14 -16,18 -29,31 -74,71 -132,147 -184,159 -23,45 0,17 -38,60 -13,15 -28,24 -45,39 -50,44 -43,45 -103,74 -23,48 -20,30 -62,75 -53,56 -121,147 -196,169 -24,45 -1,16 -39,57 -20,22 -8,7 -33,30 -45,40 -38,37 -91,64 -43,92 -904,866 -1044,999 -125,119 -214,230 -347,322l-172 -190c-63,-34 -79,-50 -113,-113 -59,-27 -107,-91 -161,-145 -54,-54 -117,-102 -145,-161 -64,-33 -100,-70 -134,-134 -55,-26 -99,-83 -150,-134 -51,-51 -109,-96 -135,-150 -62,-34 -78,-50 -112,-113 -70,-33 -274,-236 -306,-306 -63,-34 -79,-48 -112,-113 -72,-32 -273,-235 -307,-306 -64,-35 -78,-49 -113,-113 -69,-33 -253,-216 -285,-285 -66,-36 -118,-88 -154,-154 -65,-31 -233,-198 -264,-265 -63,-34 -99,-71 -133,-133 -70,-33 -253,-216 -286,-285 -66,-36 -118,-88 -154,-154l-234 -215c-70,31 -24,11 -76,52 -37,29 -8,18 -56,39 -43,84 -176,217 -261,260 -15,35 17,-9 -28,46 -13,15 -26,26 -42,42l-88 70c-45,85 -176,216 -260,261 -21,51 -112,138 -158,158 -45,85 -176,216 -261,261 -28,67 -32,19 -54,107 52,53 85,89 135,141 47,49 89,81 108,133 74,40 34,-2 71,74l309 288c23,33 16,18 23,46 71,35 62,27 97,100 54,19 298,284 316,330 64,35 78,51 112,116l274 258c25,39 7,-3 16,36 49,24 26,2 71,48 45,46 22,22 45,73 58,20 191,178 239,229 42,44 39,33 58,80 61,34 99,72 131,136 55,28 251,198 271,272 54,28 34,9 81,59 46,48 29,29 55,83 60,23 260,247 277,288 69,39 112,89 160,162 56,5 32,3 76,48 45,46 150,142 166,198 57,28 45,20 92,68 43,45 39,38 64,93 26,10 4,-3 34,19 8,6 24,21 32,29 49,49 146,141 171,198 83,45 144,120 201,204 53,7 181,152 212,203l10 24c64,32 61,38 111,90 46,49 56,53 86,113 24,10 5,-2 34,20 4,3 17,14 21,18l141 165c61,34 55,43 106,90 64,59 65,42 103,116l196 189c23,34 8,6 17,35 99,-12 119,-61 197,-145l1163 -1096c267,-242 1197,-1197 1333,-1241 13,-66 -18,-4 35,-70l386 -340 6 -8c29,-59 6,-22 49,-69l360 -321c10,-42 -10,-23 31,-25 39,-79 361,-361 384,-372 10,-20 -2,-11 21,-32 32,-29 2,-6 36,-14 34,-67 36,-59 93,-109 34,-30 54,-48 88,-79 49,-45 105,-113 180,-163 11,-20 -11,-6 32,-44 30,-26 19,-17 47,-24 36,-70 284,-288 344,-331 12,-29 -7,-14 38,-54 70,-62 12,-19 61,-32 24,-49 1,-15 38,-58l300 -263c8,-40 3,-31 41,-64 52,-45 26,-23 61,-33l71 -88c59,-55 167,-172 226,-202 19,-43 16,-36 61,-75 12,-11 32,-26 46,-35 35,-23 3,-7 36,-18 39,-71 70,-84 137,-146l97 -93c36,-29 -8,-1 45,-30 17,-54 110,-132 161,-148 31,-56 11,-31 60,-77 25,-24 40,-35 66,-59 47,-43 71,-72 132,-113 10,-33 -9,4 18,-33l165 -136c36,-66 174,-195 237,-228 12,-43 52,-70 90,-105 55,-50 61,-67 115,-86 25,-45 10,-26 49,-66 20,-21 32,-26 55,-49 64,-64 27,-53 109,-93l167 -174c42,-34 17,-20 59,-36 28,-50 9,-23 49,-65 18,-18 23,-20 42,-41 60,-68 21,-46 97,-82 23,-53 197,-208 252,-230 35,-62 32,-43 80,-95 61,-67 5,-32 84,-72l515 -501c174,-161 343,-329 518,-487l783 -745c99,-88 206,-218 258,-227 -14,-128 0,-39 -145,-214 -50,-60 -123,-126 -157,-192 -24,-9 -2,7 -33,-19 -4,-3 -16,-14 -19,-19 -38,-44 -22,-27 -34,-63 -39,-24 -46,-28 -87,-68 -28,-27 -43,-45 -69,-76 -49,-58 -90,-98 -137,-169 -26,-11 -8,2 -43,-29 -10,-9 -21,-22 -30,-32 -38,-44 -37,-40 -53,-85 -83,-50 -220,-203 -258,-283 -63,-23 -151,-128 -171,-183 -88,-4 -150,88 -207,139l-546 521c-115,125 -235,205 -367,345 -187,198 -948,865 -1080,1012l-551 517c-58,52 -122,127 -188,162z"/>
 </g>
</svg>
