<?xml version="1.0" encoding="UTF-8"?>
<!DOCTYPE svg PUBLIC "-//W3C//DTD SVG 1.1//EN" "http://www.w3.org/Graphics/SVG/1.1/DTD/svg11.dtd">
<!-- Creator: CorelDRAW X6 -->
<svg xmlns="http://www.w3.org/2000/svg" xml:space="preserve" width="352778px" height="282222px" version="1.1" style="shape-rendering:geometricPrecision; text-rendering:geometricPrecision; image-rendering:optimizeQuality; fill-rule:evenodd; clip-rule:evenodd"
viewBox="0 0 303718 242156"
 xmlns:xlink="http://www.w3.org/1999/xlink">
 <defs>
  <style type="text/css">
   <![CDATA[
    .fil0 {fill:black}
   ]]>
  </style>
 </defs>
 <g id="Слой_x0020_1">
  <metadata id="CorelCorpID_0Corel-Layer"/>
  <path class="fil0" d="M149566 216764c1364,721 2537,1936 3852,2962l11632 9734c-1184,275 -1345,626 -2715,1002 -6403,1754 -12424,-674 -17724,-3479 1497,-2830 2763,-3193 4117,-7031 374,-1061 447,-2375 837,-3188zm10689 25392l-3977 0c-5078,-336 -10173,-1896 -14763,-4026 -830,-385 -1088,-669 -1963,-1133l-1753 -1034c-1922,1288 -3731,2554 -6424,3176 -7898,1821 -16247,-2987 -17735,-9431l-4330 372c-6451,601 -15638,-6190 -16103,-11767 -1883,0 -2258,309 -4025,309 -5752,0 -11424,-3515 -14039,-7946 -741,-1256 -1929,-3433 -2063,-5059 -6812,1586 -16722,-4310 -16722,-16722 -1992,-1334 -4122,-2375 -6253,-3657 -2088,-1255 -4003,-2338 -6134,-3466 -3782,5648 -7187,2910 -15662,489l-20452 -6179c-5232,-1703 -7858,-1323 -7858,-7314l0 -1c0,-1474 3539,-10449 4299,-12732 1427,-4286 2992,-8249 4491,-12541 1511,-4324 2950,-8465 4481,-12551 2806,-7487 6153,-18103 8934,-25128l8951 -25112c1521,-4353 2506,-9790 7242,-9790 3825,0 17002,7018 21720,8938 2398,976 4431,2006 6857,3051 1978,851 7085,2856 8152,4236 2288,2960 698,1526 5300,2132 7092,933 17516,1068 23180,1904 4137,610 13701,1040 18390,1447 2290,198 1795,459 3506,-869 3211,-2492 11248,-7366 15102,-9673 958,-573 2209,-1412 3130,-1823 6036,-2692 16936,-2839 24103,-2839 9742,0 21340,6207 29478,11398 4724,3013 2052,1629 8616,1304l17026 -1244c1315,-106 1551,-514 2578,-1138l17920 -11499c1652,-1060 7704,-5324 9230,-5324 5179,0 5368,1447 7845,6400l38397 75867c1396,2792 3064,5741 4236,8463 1507,3502 -176,6231 -3610,7851 -8443,3982 -22501,10089 -30252,14031 -5398,2744 -7230,2067 -10486,-2619 -562,-810 -942,-1046 -1176,-1922l-14864 10839c337,1449 867,2417 1247,4017 2683,11308 -6075,19517 -14563,19517l-3406 0c0,8766 -8384,16412 -15173,16412 -8653,0 -5048,-653 -10219,-1858 -2184,4553 -3760,7750 -9289,10219 -4334,1934 -10363,1582 -14555,-311 -3448,-1557 -1924,-1617 -5075,500 -3555,2389 -7473,3557 -11487,3836zm-31746 -13935c-2977,0 -4644,-903 -4644,-4335 0,-1599 5263,-8317 6745,-10595 3321,-5107 7808,-1044 7808,1615 0,1153 -3046,6232 -4599,6858 -1654,668 -3963,1416 -4329,4342 -141,1124 258,2115 -982,2115zm-25083 -15173c0,-2804 1141,-3252 2852,-5818 1099,-1650 2044,-2890 3161,-4581 1698,-2572 3077,-7561 8232,-7561 3828,0 8275,5187 4428,10311l-6717 9696c-4614,7019 -11956,2858 -11956,-2047zm-19509 -10528c0,-4063 1261,-4368 4707,-9538 844,-1266 1566,-2479 2535,-3658 2004,-2434 5911,-2611 8322,-201 860,859 1865,2810 1655,4311 -186,1321 -3696,5978 -4702,7358 -2859,3929 -2388,5597 -5726,6376 -3551,828 -6791,-2122 -6791,-4648zm-11767 -8052c-4095,0 -4336,-2565 -4336,-4954 0,-621 2626,-4287 3098,-4954 320,-449 435,-556 796,-1062 3644,-5120 7192,-1673 7755,-36 961,2802 -1374,4698 -3658,8158 -851,1289 -1592,2848 -3655,2848zm46449 -55119c-4460,0 -5574,-1141 -5574,-4336 0,-4888 5615,-9111 6828,-10823 1064,-1502 908,-2840 1205,-4988 1129,-8165 2264,-11748 7892,-15952 6770,-5058 11002,-7579 17924,-11804 4577,-2794 14344,-2883 20032,-2883 6347,0 12207,3162 16618,5368 2733,1366 4593,2523 7129,4018 1301,768 2091,1400 3316,2257 3823,2674 3841,1511 9786,1363l17961 -1549c30,1339 747,3752 1128,5065l4406 14174c5190,15576 13049,32467 21540,46586 835,1388 1645,2530 2343,3850l-13540 9685c-690,515 -1310,1040 -1943,1464 -2019,-471 -3371,-2846 -4909,-4072l-35272 -32544c-6579,-5793 -15329,-14123 -21534,-19342l-4860 -4120c-1961,-1520 -2898,-2377 -5364,-3617 -5912,-2971 -18193,-1415 -21640,1082 -1712,1240 -2084,2576 -3032,4400 -1371,2634 -4012,6704 -5968,8897 -3893,4365 -7342,7821 -14475,7821zm-1858 11147c10850,0 15866,-2419 23147,-9677 5005,-4988 8134,-11896 9090,-12896 601,-629 1974,-786 2790,-926 7927,-1363 9794,2241 15666,7179 1880,1581 3262,3168 5225,4684l6543 5844c497,417 797,762 1252,1226l27109 24912c623,522 753,512 1384,1095l20511 19125c1485,1126 3597,3630 3919,6002 717,5276 -6193,7436 -13877,1169 -1176,-960 -2256,-2042 -3450,-3052l-32345 -27731c-2793,-2659 -5995,-4954 -8826,-7586 -1728,-1606 -3644,-3794 -6425,-3794 -2698,0 -5575,2100 -5575,4645 0,2279 436,4297 2117,5625l46370 39716c5334,4112 4549,12566 -2656,12566 -1936,0 -3472,-1159 -4827,-1986 -3303,-2016 -8196,-6554 -11204,-9233l-3710 -3103c-2925,-2719 -6247,-5143 -9136,-7895l-10992 -9445c-777,-722 -1055,-898 -1845,-1562l-10930 -9509c-2876,-2203 -4967,-5574 -8980,-5574 -5200,0 -6558,6561 -3497,9691l41540 35875c7265,5849 5513,12341 -1193,12341 -3971,0 -13042,-8536 -16626,-11553 -1361,-1145 -2561,-2091 -3881,-3241 -2618,-2283 -9333,-8740 -12627,-8740 -1924,0 -2771,885 -4026,1549 -401,-1503 -3036,-3580 -4344,-4327 -2014,-1151 -4874,-2176 -7733,-2176 0,-8509 -8631,-15793 -17031,-15793 -3341,0 -4883,1026 -7432,1238 -1106,-4145 -8091,-8980 -14864,-8980 -1449,0 -2127,127 -3373,343 -1363,238 -2019,636 -3130,896 -1091,-4085 -7784,-7742 -11767,-7742 -4159,0 -7646,586 -10717,2909 -1769,1338 -4046,4124 -5076,6071 -4002,-2118 -7785,-4705 -11768,-6813 10901,-20601 20129,-43258 24799,-66551 279,-1391 870,-3770 904,-5291 6487,540 32805,3097 38708,3097 -2978,5627 -2784,9537 -4052,14529 -421,1657 -5429,6147 -7139,11750 -1672,5475 -1486,10413 1455,14733 2261,3319 7093,6366 12523,6366zm115504 -53881l19199 -12077c3327,6287 6449,12588 9703,19096 3279,6556 6425,12539 9703,19095 1943,3886 18922,36976 19302,38605 -1836,971 -22901,10838 -23225,10838 -1065,0 -5175,-6992 -5761,-7864l-7658 -13089c-2240,-4559 -4758,-8702 -6888,-13860 -1380,-3339 -2708,-6159 -4067,-9557 -1340,-3347 -2711,-6658 -3847,-10088 -1087,-3285 -2433,-6860 -3365,-10261l-3097 -10839zm-196016 76177c-2027,-472 -3704,-1060 -5777,-1656 -2763,-796 -16167,-5024 -17758,-5157l5384 -15054c680,-1946 1229,-3353 1856,-5267 3594,-10976 8772,-24409 12769,-35848l3704 -10230c693,-1787 1272,-3468 1876,-5246 681,-2005 3402,-9012 3519,-10416l22914 10219c0,2006 -1416,9255 -1919,11396 -2671,11374 -4972,19848 -9405,30852l-17164 36406z"/>
  <path class="fil0" d="M122936 4644c0,3395 7289,48396 8164,50673 825,2148 3142,3796 5910,3353 1357,-218 2618,-846 3323,-1636 2568,-2878 1177,-6591 520,-10542 -1331,-8004 -5813,-37737 -6999,-42547 -611,-2476 -2558,-3697 -4607,-3946l-1603 0c-1191,143 -2304,600 -3085,1313 -630,577 -1623,2243 -1623,3331z"/>
  <path class="fil0" d="M183940 4954c0,-2320 -2379,-4954 -4645,-4954l-2 0c-2794,0 -5332,239 -6359,3858 -335,1185 -368,2458 -542,3793l-4956 35299c-897,6202 -2615,11574 623,14426 1605,1414 4224,1844 6403,652 2303,-1259 2618,-2938 3029,-5951 710,-5180 1432,-10411 2209,-15752l4241 -31371z"/>
  <path class="fil0" d="M199423 58217c0,6894 7184,7208 9869,3985 401,-481 401,-506 788,-1071l14247 -22293c1163,-1908 5133,-7178 5133,-9420 0,-2518 -2217,-5575 -4644,-5575 -4937,0 -5449,1402 -8882,7221l-14156 22075c-967,1445 -2354,2928 -2354,5077z"/>
  <path class="fil0" d="M78654 33753c0,3956 1804,5025 4644,9290l10034 14740c3819,5737 3845,6318 8547,6318 3462,0 4335,-3626 4335,-6503 0,-1657 -3720,-6343 -4645,-7741l-10033 -14741c-3092,-4637 -3561,-6317 -7927,-6317 -2696,0 -4954,2258 -4954,4954z"/>
 </g>
</svg>
