<?xml version="1.0" encoding="UTF-8"?>
<!DOCTYPE svg PUBLIC "-//W3C//DTD SVG 1.1//EN" "http://www.w3.org/Graphics/SVG/1.1/DTD/svg11.dtd">
<!-- Creator: CorelDRAW X6 -->
<svg xmlns="http://www.w3.org/2000/svg" xml:space="preserve" width="352778px" height="448028px" version="1.1" style="shape-rendering:geometricPrecision; text-rendering:geometricPrecision; image-rendering:optimizeQuality; fill-rule:evenodd; clip-rule:evenodd"
viewBox="0 0 199351 254044"
 xmlns:xlink="http://www.w3.org/1999/xlink">
 <defs>
  <style type="text/css">
   <![CDATA[
    .fil0 {fill:black}
   ]]>
  </style>
 </defs>
 <g id="Слой_x0020_1">
  <metadata id="CorelCorpID_0Corel-Layer"/>
  <path class="fil0" d="M95497 216446c-1572,987 -3525,2135 -5169,2198l-7752 4200 -2244 728c-397,513 -163,412 -787,886 -342,259 -860,501 -1285,709 -1204,592 -1565,713 -2796,1111l-8031 4017 -1434 1030 -4427 2069 -74 -2382 -56 -8176 43 -6816 -37 -8032 5 -6568 33 -8087 -25 -6662 294 -5039 2339 4797c734,528 700,1038 1547,1886 746,748 1403,1101 2266,1608 2864,967 4351,542 7026,-54 1908,-1110 6045,-3380 7957,-3567l934 -870 6396 -3035 7946 -3723c1484,-1263 2430,-522 4151,276 1353,627 3012,1221 3813,2137 1598,382 2221,684 3612,1355 502,242 803,352 1312,690 1478,982 608,380 1205,1039l4208 1786c807,335 1364,549 2172,961 568,289 513,251 993,563 628,406 516,332 921,729 2291,353 3863,2080 6719,2342 3809,-121 4339,-544 7111,-2689 74,-57 213,-170 322,-251 150,-885 36,-1385 1115,-2043 560,-2009 730,-2309 1990,-3876l87 4936 -31 6682 32 8128 7 6541 -38 8060 41 6766 3 8208 -61 2250c-1909,-495 -3659,-1728 -5420,-2527 -1846,-837 -3403,-1722 -5573,-2757 -1834,-801 -12343,-5622 -13894,-7383 -1861,-61 -5296,-2183 -7041,-3089 -3412,-1772 -3633,-2218 -8369,-2081l-2057 1020zm-58009 -169336c3307,-479 6417,-1638 9779,-1236 1104,-1019 3620,-1136 5425,-1475l3007 -11c985,-891 3675,-1400 4918,-1810 1194,-1142 1363,-1105 2322,-2427 606,-835 944,-1709 1644,-2444 783,-2057 1796,-4850 3577,-6333l653 -1914c590,-1656 1241,-2576 2082,-4152 778,-1459 1090,-2403 2242,-3386 132,-1895 651,-1722 1259,-3650l1036 490c1086,407 1729,750 2746,1215 478,218 996,405 1370,664 704,486 422,371 858,904l2900 1258c1854,433 2608,820 4287,1675 641,326 972,456 1602,857l1503 1199c1864,204 2040,675 3757,1496l3027 1459c45,-90 187,144 275,220l4838 -234c517,-551 -60,-356 1226,-1024 626,-326 1164,-372 1807,-563 1219,-1242 4356,-2710 5998,-2826 695,-854 -68,-198 1143,-1034 250,-173 909,-506 1309,-689 1289,-588 1592,-701 2963,-1065l3118 -1613 4753 -2315 1640 3983 705 1524c1290,1087 2756,4088 3283,5610 2145,2628 3914,8336 6303,11275 2510,3090 8623,3784 13544,4380l6968 1295 7800 1242 -487 4207 -1460 8309c-25,-70 -114,243 -195,349 358,2337 -164,3226 -352,5580l-810 5196c-456,4879 1610,5051 2524,7675 1562,945 1703,1227 2763,2901 1274,88 1737,1062 2785,2200 906,983 1565,1574 2215,2599l1940 2426c2327,820 4530,4206 6320,6175 -845,1274 -1074,1568 -2294,2250 -975,2043 -3963,5270 -5830,6452l-341 422 -514 550c-1517,1531 -5641,6021 -6834,6546 -1229,3043 -2805,2265 -2711,7601l941 7924 867 5092c212,2905 1290,5874 819,8817 570,720 -24,-544 627,1077 284,708 45,80 149,1022l-8155 1377 -7637 1217 -6539 1214c-2778,489 -4088,1410 -5835,2549 -922,1579 -614,1430 -1961,2376 -238,2351 -2684,5897 -4078,8413l-1732 3350c-25,-69 -136,161 -212,234l-1084 2511c-688,1311 -2540,5212 -3559,6099 -1333,-465 -1355,-639 -2701,-1386l-2268 -1488c-1914,-239 -5249,-2179 -6986,-3147 -1109,-393 -1771,-717 -2805,-1222 -423,-208 -967,-452 -1319,-693 -616,-421 -532,-459 -895,-845 -1757,-34 -1719,-372 -3161,-1260 -2537,-724 -3338,-1430 -6529,-973 -3749,1132 -12446,6475 -15134,6639 -1328,1682 -4614,2861 -6823,3617l-995 575c-1094,-1112 -1504,-2335 -2427,-4007 -948,-1714 -1597,-2207 -1770,-4124 -1494,-1028 -2620,-3742 -3261,-5634l-1163 -2044 -4007 -7022c-634,-392 -1385,-870 -1764,-1468l-8110 -1964c-67,-168 -256,-119 -366,-207 -2217,310 -4737,-525 -6812,-819l-7035 -1327 -4024 -588 572 -3802c129,-1802 200,-4788 1193,-5938 -384,-2845 557,-5326 752,-8216l859 -5698c177,-4200 -626,-4531 -2368,-7005 -1570,-1317 -3819,-3542 -4864,-5330l-2193 -2448c-2123,-890 -4029,-3159 -4909,-4863l-2842 -2902 -1460 -1504c1363,-1582 2756,-3385 4502,-4506 708,-1279 644,-1226 1887,-1695 880,-2066 3477,-4743 5264,-5954l1694 -1244c1563,-2582 5012,-4585 5217,-8564 157,-3041 -1051,-8485 -1323,-11736l-915 -8264c-73,-127 -158,-289 -196,-396l-527 -2638c-110,-926 -277,-1827 -400,-2659l3415 -502zm25139 -39969l-1546 3239c-510,1121 -992,1882 -1602,2999 -144,263 -595,1108 -708,1270 -891,1279 60,308 -1022,1106 -293,2214 -1897,4318 -3091,6580 -838,1783 -357,1714 -1887,2835 -154,1658 -756,3155 -2559,3753 -1444,479 -3882,730 -5235,897l-13702 2462c-2285,196 -4630,1124 -6954,793l-1827 961c-3396,1562 -2020,1685 -4096,3156 -1260,3817 -1042,3666 -539,7817l961 6505 986 8248 969 5980c224,2471 1299,3317 -406,5295l-9778 10069c-6925,7113 -10866,8871 -10576,15906l605 1604c1142,2438 3512,3666 4301,5348 1631,969 3056,2594 4090,4153 672,567 1095,956 1766,1639 129,131 873,943 924,1015 530,743 150,182 401,874 1367,737 1206,721 2319,1899 386,408 620,649 940,1043 829,1027 328,320 920,1304 863,535 2526,1935 3192,3046 2231,1173 1868,2040 1769,3438 -87,1227 -465,3765 -1155,4642 416,2389 -283,5130 -664,7497 -92,1204 -233,2397 -406,3543 -277,1834 56,1595 -920,2759 557,3333 -865,6411 -661,10034 1183,2467 -116,971 2077,3763l935 1359c1132,228 2337,959 4128,1308 2211,331 6084,411 7512,1694 2429,-318 4361,410 6786,819l6916 1142c646,5523 26,15312 29,21161 3,8159 -408,61818 320,65083 614,4468 2550,4836 5591,6863l3684 0c1181,-755 10413,-5170 11431,-5345l6771 -3576 1174 -396 1855 -1318c840,-441 1230,-572 2035,-959 1499,-718 2648,-1381 4087,-1983l14938 -7313c2299,-1927 5875,493 8050,1925l5108 2568 2851 1356 5814 3147 5962 2944 2098 839c1487,706 2461,1216 4018,1982 736,361 1287,587 1974,952 1183,629 1062,505 1890,1266l5339 2363 3501 1550 2909 0c3221,-1849 5080,-1983 6102,-6453l209 -81875c-110,-5111 -458,-3972 726,-4787l1887 -13c624,-477 -342,-65 1154,-596l2953 -551c1511,-259 2769,-513 4315,-736l8299 -1356c2277,-777 3902,-992 6201,-1903l443 -320c662,-1398 1512,-2702 2419,-4673l-1007 -9579 -992 -6680c-387,-2783 -790,-5872 -1222,-8622 -608,-3875 -1530,-5326 1178,-6882 793,-1448 8582,-9078 10208,-10746 1813,-1861 3232,-3552 5059,-5368 2351,-2339 3448,-2884 4187,-6383 172,-4032 -1220,-5041 -2400,-7429 -1179,-560 -2142,-1652 -2654,-2856 -943,-575 -715,-296 -1546,-1162 -768,-800 -618,-745 -1218,-1716 -1497,-400 -4347,-3622 -4749,-4964 -1835,-830 -3292,-2477 -4222,-4207 -1120,-496 -2149,-1677 -2730,-2787 -673,-450 -934,-600 -1603,-997 -302,-2166 591,-8632 1237,-10702l1084 -8189 964 -6561c514,-4115 717,-4030 -540,-7779l-1671 -2284c-1613,-333 -1893,-876 -3955,-1356 -1296,-301 -2910,-579 -4115,-761 -4939,-717 -6293,-687 -7502,-1699 -2878,389 -9780,-1266 -12935,-1882l-2478 -398c-1444,-1719 -2567,-4285 -3603,-6469 -876,-1632 -2064,-3140 -2226,-4815l-1005 -1258c-237,-388 -474,-1009 -690,-1510l-4045 -7598 -2480 -4095c-1822,-2202 -2287,-1524 -4659,-3048l-3082 0c-1580,934 -4056,2113 -5996,2742l-7951 3813 -2735 1351 -4203 1857c-450,449 -233,295 -899,733 -499,327 -449,264 -1001,538 -4350,2161 -3921,2759 -5877,860 -2460,-780 -5490,-2492 -7854,-3698 -2517,-1285 -5244,-2158 -7520,-3660 -1219,-432 -8926,-3880 -9933,-4537l-2716 0c-2717,1891 -3285,386 -5886,4945l-1316 2195z"/>
  <path class="fil0" d="M62685 88066c-188,-2574 721,-4358 1637,-6639 361,-1437 681,-2130 1301,-3301 69,-131 889,-1558 921,-1602 872,-1153 300,-477 1143,-1056 158,-1331 -989,-126 700,-1348 817,-2220 2789,-4156 4646,-5977l2132 -1380c719,-2014 5623,-4773 7485,-5509 4998,-2355 8834,-3413 15165,-3923 2447,-221 7011,-488 8652,917 1926,-188 3018,168 4624,854l896 388c3034,671 8272,3016 9523,5081 1969,821 1830,432 2958,2412 1515,226 2740,1924 3149,3131 1868,775 2650,2130 3354,4010 2191,1548 6150,10581 5735,14231 82,101 186,237 226,319l482 1154c84,339 114,953 149,1329 78,835 137,1764 189,2603 61,967 137,2073 84,3037 -25,453 -61,934 -162,1375 -243,1071 -72,395 -480,963 340,2372 -123,4025 -872,6059l-779 2604 -1445 4005c-1070,1640 -1221,2449 -2353,4123 -351,519 -981,1482 -1399,2041 -929,1239 -258,714 -1625,1572 -166,662 341,241 -639,1062 -2074,3042 -9768,9339 -15515,10466l-7795 1980c-2290,344 -6691,943 -8839,-63l-4694 -554 -8886 -3636c-1480,-122 -1094,-90 -2420,-882 -285,-170 -930,-552 -1179,-764 -767,-652 -141,56 -416,-636 -1104,-471 -1414,-526 -2284,-1193 -910,-697 -876,-851 -1288,-1374 -1482,-800 -3548,-2748 -4145,-4385 -1338,-879 -880,-559 -1828,-1848 -1101,-1496 -755,-798 -1357,-2442 -957,-831 -1670,-2469 -2147,-3939 -175,-258 -48,56 -591,-951l-2040 -5978c-472,-2043 -806,-3105 -501,-5268 -743,-1035 -603,-1093 -654,-2839 -28,-992 60,-2006 127,-2996 122,-1813 25,-4166 1053,-5234zm27110 -45770l-6820 1981 -3284 634c-1098,1165 -2623,1715 -4324,2180l-7432 4658c-349,685 6,465 -1185,870 -1552,1786 -3874,3332 -5451,5150 -799,1215 -1277,1473 -2491,2298 -851,1664 -3399,4656 -4837,6852 -1414,2157 -2535,5121 -3908,7206l-2682 6740 -1311 10200c-247,8410 412,12690 2260,20504 588,1745 2517,5964 2721,7290l2578 4297 1848 3169c1516,1330 2459,2915 3474,4665 1125,327 797,343 1706,1290 1080,1124 625,352 1198,1673 1854,907 1465,978 3098,2479 727,667 1069,788 1674,1319 1046,919 656,542 1229,1401 1112,301 178,-167 1590,731 425,270 895,626 1387,950 1090,425 1198,515 2328,1238 416,267 504,316 915,636 605,470 473,341 886,820 1563,56 6013,1965 7351,2905l7151 1847 1578 31 6151 738c5264,521 10527,-576 15430,-1382l7345 -2491c1313,-554 2087,-979 3258,-1540 630,-302 1102,-555 1669,-827 1429,-684 642,-540 2013,-741 577,-697 86,-520 1544,-1015 977,-1127 5106,-3971 6102,-4272 851,-1874 1370,-2077 2991,-2830l884 -1418c1338,-1618 2174,-1898 3268,-3647l1601 -2009c61,-64 245,-97 290,-275 46,-182 195,-188 298,-276 426,-1036 3576,-6555 4312,-7573 340,-1181 81,-1443 1343,-1991l1480 -5189 1662 -6640 749 -7683 -142 -6228 -1317 -10153 -1519 -3144c-478,-1351 -688,-2017 -1012,-3294l-216 -588 -3864 -7351c-866,-506 -3142,-3900 -3342,-4838 -665,-472 -443,-168 -998,-798 -608,-691 -156,-174 -585,-1141 -2392,-1281 -4270,-4204 -6606,-6047 -1161,-916 -6445,-4349 -6869,-4990 -2822,-1000 -7941,-3691 -11577,-4778 -615,-183 -1394,-317 -1973,-512l-1462 -692c-61,-168 -237,-137 -337,-228l-6874 -717 -7384 -103 -7562 648z"/>
  <path class="fil0" d="M116038 75020l-2927 2759c-547,865 -116,237 -703,909l-3963 3741 -2779 2828c-1142,1708 -2949,3343 -4553,4597l-2892 2749c-1084,1735 -2898,3601 -4678,4634l-811 1117c-2145,-888 -7089,-6540 -8977,-8405 -794,-493 -504,188 -1005,-1347 -1372,-202 -1828,-784 -3620,-1031 -1548,-212 -2642,171 -4156,391 -969,863 -1673,1297 -2756,1854 -450,1069 -1196,1592 -1628,3118 -485,1716 -229,3220 -416,4962 1055,858 1392,1836 2537,3003 1153,1176 1596,1379 2369,2814l771 769c1668,857 2461,1983 3830,3350 1206,1205 2495,2272 3287,3544 1511,969 2417,2121 3638,3428 888,951 702,924 1816,1617 2691,1677 -153,-701 2283,1353 2048,-309 3006,10 4886,-806 1767,-768 2233,-1719 3397,-2278l2246 -2254c467,-1037 1585,-2608 2925,-2783 992,-2124 1256,-2086 2664,-3293 486,-417 834,-760 1287,-1172l1028 -868c36,-139 174,-136 268,-194 911,-1522 4089,-4621 5464,-5356 816,-1695 967,-1382 2670,-2496 136,-1164 849,-1873 2008,-2003 1521,-2325 2514,-3831 5436,-5440 107,-1053 -30,-696 902,-1580 754,-716 732,-709 1702,-1067 804,-2793 1528,-2495 1372,-6502 -687,-4543 -4064,-7010 -9238,-6449 -1025,526 -2454,1078 -3681,1786z"/>
 </g>
</svg>
