<?xml version="1.0" encoding="UTF-8"?>
<!DOCTYPE svg PUBLIC "-//W3C//DTD SVG 1.0//EN" "http://www.w3.org/TR/2001/REC-SVG-20010904/DTD/svg10.dtd">
<!-- Creator: CorelDRAW X6 -->
<svg xmlns="http://www.w3.org/2000/svg" xml:space="preserve" width="33px" height="33px" version="1.0" style="shape-rendering:geometricPrecision; text-rendering:geometricPrecision; image-rendering:optimizeQuality; fill-rule:evenodd; clip-rule:evenodd"
viewBox="0 0 5167 5167"
 xmlns:xlink="http://www.w3.org/1999/xlink">
 <defs>
  <style type="text/css">
   <![CDATA[
    .fil0 {fill:#E31E24;fill-rule:nonzero}
   ]]>
  </style>
 </defs>
 <g id="Слой_x0020_1">
  <metadata id="CorelCorpID_0Corel-Layer"/>
  <path class="fil0" d="M757 756c-506,505 -757,1114 -756,1828 1,713 253,1322 756,1826 505,506 1114,757 1827,757 713,0 1322,-252 1827,-757 504,-504 756,-1113 756,-1826 1,-713 -251,-1322 -756,-1828 -504,-504 -1113,-756 -1827,-756 -714,0 -1323,252 -1827,756zm152 151c467,-467 1024,-699 1674,-699 650,0 1208,232 1675,699 468,468 701,1026 701,1676 0,650 -233,1208 -699,1675 -467,468 -1026,701 -1676,701 -650,0 -1209,-233 -1676,-701 -468,-468 -701,-1026 -700,-1675 1,-649 234,-1208 702,-1676zm3480 789c-57,-231 -161,-454 -313,-668 -116,74 -221,157 -313,249 -155,155 -278,361 -367,617l35 34c157,157 -5,475 -485,955 -497,497 -825,666 -983,508l-34 -34c-260,69 -469,183 -628,341 -97,97 -173,211 -228,343 194,138 414,241 662,308 278,-128 546,-283 804,-466 258,-182 506,-393 745,-632 243,-243 457,-495 641,-754 184,-259 338,-526 464,-803zm-383 -739l-78 -78c-100,-100 -190,-148 -270,-142 -81,5 -178,65 -291,179 -316,316 -358,590 -126,823l74 74c68,-235 190,-440 367,-617 98,-98 206,-178 323,-239zm-2168 2310l-60 -60c-248,-248 -526,-216 -836,94 -119,119 -179,218 -181,299 -3,81 51,178 163,290l70 70c69,-145 146,-261 233,-348 166,-166 370,-280 611,-344z"/>
 </g>
</svg>
