<?xml version="1.0" encoding="UTF-8"?>
<!DOCTYPE svg PUBLIC "-//W3C//DTD SVG 1.0//EN" "http://www.w3.org/TR/2001/REC-SVG-20010904/DTD/svg10.dtd">
<!-- Creator: CorelDRAW X6 -->
<svg xmlns="http://www.w3.org/2000/svg" xml:space="preserve" width="167px" height="114px" version="1.0" style="shape-rendering:geometricPrecision; text-rendering:geometricPrecision; image-rendering:optimizeQuality; fill-rule:evenodd; clip-rule:evenodd"
viewBox="0 0 35095 23978"
 xmlns:xlink="http://www.w3.org/1999/xlink">
 <defs>
  <style type="text/css">
   <![CDATA[
    .fil0 {fill:#FEFEFE}
   ]]>
  </style>
 </defs>
 <g id="Слой_x0020_1">
  <metadata id="CorelCorpID_0Corel-Layer"/>
  <g id="_754972832">
   <path class="fil0" d="M30936 10831l-200 0c-247,0 -502,-247 -579,-422 -134,-306 -44,-2486 -44,-2936l0 -6027 -16792 0 0 16948 5894 0c361,0 689,341 689,645 0,230 -18,431 -216,606 -129,114 -259,194 -495,194l-8785 0c-565,0 -954,-752 -473,-1229 128,-127 270,-216 518,-216l1423 0 0 -13656 -5694 0c-96,0 -120,46 -173,94l-3773 3122c-67,52 -92,78 -159,130 -61,48 -96,81 -158,131 -60,48 -103,80 -157,132 -128,122 -275,181 -293,285 -21,122 43,8809 43,9740 576,0 1091,-95 1364,370 151,258 112,692 -178,927 -163,132 -304,171 -586,171l-1223 0c-970,0 -823,-834 -823,-1335 0,-245 0,-489 0,-734 0,-248 -22,-429 -22,-689 0,-2783 -38,-5563 -22,-8341 1,-249 -99,-611 129,-916 89,-118 257,-237 375,-336l2384 -1975c504,-398 1077,-912 1595,-1319 70,-56 121,-105 192,-164l402 -332c76,-61 134,-106 209,-169 137,-116 253,-238 496,-238l6072 0 0 -2580c0,-345 315,-712 645,-712l18416 0c196,0 386,158 477,279 145,192 146,293 146,611l0 3025c0,523 22,983 22,1490 0,1008 0,2016 0,3025 0,517 -22,966 -22,1490 0,295 0,454 -130,627 -85,114 -304,285 -493,285z"/>
   <path class="fil0" d="M9028 8051l-2647 0c-59,0 -390,336 -445,378 -222,170 -828,763 -1093,975 -47,37 -197,163 -197,226l0 2825 4382 0 0 -4404zm1446 -801l0 6005c0,184 -129,365 -227,462 -105,103 -284,205 -484,205l-5850 0c-374,0 -712,-358 -712,-667l0 -4026c0,-401 333,-564 562,-795 71,-72 97,-96 175,-158l346 -321c69,-67 117,-92 189,-166 68,-70 113,-91 179,-155 31,-30 45,-50 78,-78 44,-39 55,-39 100,-78l723 -656c111,-111 259,-217 473,-217l3781 0c357,0 667,357 667,645z"/>
   <path class="fil0" d="M6515 18972c-576,0 -1013,173 -1351,539 -64,69 -133,163 -183,239 -348,527 -392,1123 -152,1710 166,408 486,712 879,900 104,50 202,89 328,117 406,90 760,58 1118,-109 244,-114 474,-262 640,-473 42,-54 65,-69 102,-120 59,-81 116,-179 167,-278 52,-104 91,-217 118,-327 148,-597 -7,-1198 -446,-1636 -174,-173 -283,-271 -510,-379 -186,-89 -440,-182 -708,-182zm3180 1757c0,326 -74,744 -169,1032 -164,495 -426,887 -793,1254 -203,203 -422,388 -676,525 -105,57 -166,93 -281,142 -191,81 -369,163 -592,209 -800,164 -1354,104 -2087,-209 -217,-92 -565,-309 -735,-466l-270 -264c-1384,-1513 -1038,-3793 500,-4855 342,-237 690,-396 1103,-498 470,-117 976,-121 1447,-9 237,56 411,125 615,208 268,110 520,278 742,459 93,76 138,115 223,200 601,602 973,1419 973,2274z"/>
   <path class="fil0" d="M25709 20818c0,-563 -147,-935 -528,-1318 -840,-843 -2256,-672 -2829,429 -255,491 -244,1137 6,1637 450,902 1593,1261 2549,651 445,-284 802,-855 802,-1400zm1446 -334c0,463 29,717 -120,1170 -36,111 -55,179 -96,282 -205,512 -427,777 -801,1156 -561,568 -1457,884 -2274,884 -654,0 -1246,-225 -1766,-569l-442 -359 -354 -425c-127,-172 -199,-322 -293,-508 -298,-591 -400,-1500 -206,-2178 338,-1178 1168,-2051 2392,-2345 991,-238 1954,33 2724,613l218 182c139,134 245,263 367,411 109,133 221,313 302,477 162,327 348,818 348,1209z"/>
   <path class="fil0" d="M33005 11944c0,385 -258,642 -644,646 -414,4 -832,-1 -1247,-1 -2046,0 -4139,59 -6184,46 -831,-5 -858,-1250 -22,-1248 208,1 416,0 624,1 223,0 368,-22 601,-22 830,0 1661,0 2491,0l3715 -23c298,-2 481,99 605,330 41,77 62,161 62,271z"/>
   <path class="fil0" d="M35095 14888c-18,109 -72,183 -214,266 -105,62 -229,81 -386,81l-6828 0c-499,0 -799,-365 -638,-816 71,-198 303,-363 459,-363l7117 0c202,0 489,150 489,334l0 498z"/>
   <path class="fil0" d="M31559 16503l0 2647c0,98 -27,199 -59,274 -111,260 -371,415 -653,415l-2202 0c-215,0 -393,-111 -502,-232 -204,-225 -242,-529 -114,-807 94,-203 358,-407 594,-407l1490 0 0 -1890c0,-634 757,-987 1229,-518 130,129 216,266 216,518z"/>
  </g>
 </g>
</svg>
